REM MD5 e4a3f9b4a946f4c5a49ece7f5a91891f
FILE "Morita Shougi (Japan).bin" BINARY
  TRACK 01 MODE2/2352
    INDEX 01 00:00:00
  TRACK 02 AUDIO
    INDEX 00 07:05:61
    INDEX 01 07:07:61
  TRACK 03 AUDIO
    INDEX 00 12:05:51
    INDEX 01 12:08:51
  TRACK 04 AUDIO
    INDEX 00 17:27:13
    INDEX 01 17:30:13
  TRACK 05 AUDIO
    INDEX 00 25:13:07
    INDEX 01 25:18:07
REM LEADOUT 32:28:39
